<?xml version="1.0" encoding="UTF-8" standalone="no"?>
<svg
   xmlns:svg="http://www.w3.org/2000/svg"
   xmlns="http://www.w3.org/2000/svg"
   version="1.1"
   width="201.9375"
   height="24.969183"
   id="svg3016">
  <defs
     id="defs3018" />
  <g
     transform="translate(-284.74554,-497.02045)"
     id="layer1">
    <path
       d="m 334.27679,497.02045 0,0.8125 12,0 0,-0.8125 -12,0 z m -27.1875,3.21875 c -3.35,-0.03 -6.93875,1.8825 -6.96875,5.46875 -0.035,3.91 3.235,4.98375 6.40625,6.03125 2.805,0.92625 5.46125,1.80875 5.4375,4.59375 -0.02,2.3475 -2.1775,4.815 -6.125,4.78125 -2.6425,-0.0237 -4.71625,-1.24625 -5.875,-2 10e-4,0.45 -0.001,1.22875 0,1.40625 1.68875,0.9225 3.78375,1.45125 5.90625,1.46875 4.045,0.0362 8.15,-2.195 8.1875,-6.53125 0.0325,-3.69625 -3.2125,-4.7875 -6.375,-5.84375 -2.85875,-0.9575 -5.58625,-1.86375 -5.5625,-4.625 0.02,-2.29125 2.20125,-3.9925 5.0625,-3.96875 2.73875,0.0225 4.6225,1.2725 5.5,1.96875 0.006,-0.47625 -0.001,-1.20625 0,-1.375 -0.865,-0.44875 -2.92875,-1.3525 -5.59375,-1.375 z m 91.03125,0.28125 c -0.10125,0.25 -8.4875,20.3525 -8.71875,20.90625 l 1.46875,0 c 0.1025,-0.25 3.25,-8.03125 3.25,-8.03125 l 8.84375,0 c 0,0 3.18,7.7825 3.28125,8.03125 l 2.71875,0 c -0.785,-1.8425 -5.46875,-12.8125 -5.46875,-12.8125 0,0 -3.3325,-7.85 -3.4375,-8.09375 l -1.9375,0 z m -113.375,0.1875 0,20.71875 12.125,0 0,-0.9375 -9.75,0 0,-9.875 8.84375,0 0,-0.84375 -8.84375,0 0,-8.1875 9.59375,0 0,-0.875 -11.96875,0 z m 30.1875,0 0,0.875 6.8125,0 0,19.84375 2.40625,0 0,-19.84375 6.8125,0 0,-0.875 -16.03125,0 z m 19.375,0 0,20.71875 12.125,0 0,-0.9375 -9.75,0 0,-9.875 8.84375,0 0,-0.84375 -8.84375,0 0,-8.1875 9.59375,0 0,-0.875 -11.96875,0 z m 16.5,0 0,20.71875 12.125,0 0,-0.9375 -9.75,0 0,-9.875 8.84375,0 0,-0.84375 -8.84375,0 0,-8.1875 9.59375,0 0,-0.875 -11.96875,0 z m 25.03125,0 0,20.71875 12,0 0,-0.96875 c -0.3975,10e-4 -9.65625,0.0312 -9.65625,0.0312 l 0,-19.78125 -2.34375,0 z m 35.125,0 0,13.9375 c 0,4.74125 2.865,7.25 8.28125,7.25 5.15,0 8.21875,-2.65125 8.21875,-7.09375 l 0,-14.09375 -1.21875,0 0,14.09375 c 0,3.9175 -2.55875,6.34375 -6.6875,6.34375 -3.9025,0 -6.25,-2.21375 -6.25,-5.9375 l 0,-14.5 -2.34375,0 z m 21.125,0 0,20.71875 6.84375,0 c 3.69625,0.045 6.6875,-0.96125 8.6875,-2.9375 1.85,-1.82625 2.78125,-4.41875 2.78125,-7.6875 0,-3.175 -0.925,-5.76375 -2.6875,-7.5 -1.785,-1.75625 -4.43125,-2.64625 -7.6875,-2.59375 l -7.9375,0 z m 22.1875,0 0,20.71875 12.125,0 0,-0.9375 -9.75,0 0,-9.875 8.84375,0 0,-0.84375 -8.84375,0 0,-8.1875 9.59375,0 0,-0.875 -11.96875,0 z m 16.53125,0 0,20.71875 2.375,0 0,-10.09375 4.40625,0 c 0,0 6.37875,9.90625 6.5,10.09375 l 2.59375,0 c -0.4,-0.60375 -6.84375,-10.34375 -6.84375,-10.34375 l 0.3125,-0.0625 c 0.215,-0.0412 5.21875,-1.05 5.21875,-5.09375 -0.004,-1.41 -0.455,-2.56625 -1.34375,-3.4375 -1.22,-1.19375 -3.2725,-1.83 -5.78125,-1.78125 l -7.4375,0 z m 2.375,0.78125 4.84375,0 c 1.71625,-0.0213 3.0075,0.395 3.875,1.25 0.76875,0.75625 1.155,1.8375 1.15625,3.1875 0.005,1.2475 -0.3725,2.285 -1.15625,3.0625 -1.085,1.075 -2.895,1.61625 -5.21875,1.59375 l -3.5,0 0,-9.09375 z m -38.6875,0.0312 5.125,0 c 2.46,-0.0263 4.42875,0.66375 5.84375,2.0625 1.66125,1.64625 2.5,4.20375 2.5,7.59375 0,3.18625 -0.79625,5.59125 -2.375,7.15625 -1.6,1.58 -3.9275,2.315 -7.15625,2.28125 l -3.9375,0 0,-19.09375 z m -35.96875,0.84375 2.9375,7.3125 1.15625,2.84375 -8.15625,0 0.125,-0.28125 c 0.3975,-0.955 2.30125,-5.615 3.75,-9.375 l 0.1875,-0.5 z"
       id="path1640"
       style="fill:#000000;fill-opacity:1;fill-rule:nonzero;stroke:none" />
  </g>
</svg>
