<?xml version="1.0" encoding="utf-8"?>
<!-- Generator: Adobe Illustrator 18.0.0, SVG Export Plug-In . SVG Version: 6.00 Build 0)  -->
<!DOCTYPE svg PUBLIC "-//W3C//DTD SVG 1.1//EN" "http://www.w3.org/Graphics/SVG/1.1/DTD/svg11.dtd">
<svg version="1.1" id="Layer_1" xmlns="http://www.w3.org/2000/svg" xmlns:xlink="http://www.w3.org/1999/xlink" x="0px" y="0px"
	 viewBox="-63 -63 150 150" enable-background="new -63 -63 150 150" xml:space="preserve">
<rect x="-63" y="-63" width="150" height="150"/>
<path fill="#C9A058" d="M71.1,13.5H59.6l5.7-12.8L71.1,13.5 M78.4,25.1l-12-27h-2.1l0.4,0.9L53,25.1h2.2L55,24.2l4.1-9.3h12.7
	l4.5,10.1H78.4z M40.4,13.5H29l5.7-12.8L40.4,13.5z M47.7,25.1l-12-27h-2.2l0.4,0.9L22.3,25.1h2.2l-0.2-0.9l4.2-9.3H41l4.5,10.1
	H47.7z M18.8,23.7H7.2V-1.9H4.6l0.5,0.9v26.1h13.1L18.8,23.7z M-6.3,23.7h-13v-12h12.2l0.5-1.4h-12.7V-0.6h12.4L-6.4-2h-15.6
	l0.5,0.9V25h14.5L-6.3,23.7z M-30.4-1.9h-2.1l0.2,0.9l-9.8,23.4L-52.4-1.9h-2.3l11.3,27h1.5L-30.4-1.9z"/>
<path fill="#C9A058" d="M-54.5,35.8h3.2c1.9,0,3.1,1,3.1,2.7v0.1c0,1.8-1.5,2.7-3.3,2.7h-2v2.9h-1V35.8 M-51.5,40.3
	c1.4,0,2.3-0.8,2.3-1.9l0,0c0-1.2-0.9-1.9-2.3-1.9h-2.1v3.7H-51.5z"/>
<path fill="#C9A058" d="M-43.5,35.8h3.6c1,0,1.9,0.3,2.4,0.9c0.4,0.4,0.6,1,0.6,1.6l0,0c0,1.4-1,2.2-2.3,2.4l2.6,3.5h-1.2l-2.4-3.2
	h-2.4v3.2h-0.9L-43.5,35.8 M-39.9,40c1.3,0,2.1-0.7,2.1-1.7v-0.1c0-1-0.8-1.6-2.1-1.6h-2.6V40C-42.5,40-39.9,40-39.9,40z"/>
<rect x="-31.7" y="35.8" fill="#C9A058" width="0.9" height="8.4"/>
<polyline fill="#C9A058" points="-26.6,35.8 -25.5,35.8 -22.5,43 -19.5,35.8 -18.5,35.8 -22.1,44.3 -23,44.3 -26.6,35.8 "/>
<path fill="#C9A058" d="M-11.9,35.6h0.9l3.8,8.5h-1l-1-2.2h-4.6l-1,2.2h-1L-11.9,35.6 M-9.6,41.1l-1.9-4.3l-1.9,4.3H-9.6z"/>
<polyline fill="#C9A058" points="-1.9,36.6 -4.8,36.6 -4.8,35.8 1.8,35.8 1.8,36.6 -1,36.6 -1,44.1 -1.9,44.1 -1.9,36.6 "/>
<polyline fill="#C9A058" points="6,35.8 12.1,35.8 12.1,36.6 7,36.6 7,39.5 11.5,39.5 11.5,40.3 7,40.3 7,43.3 12.1,43.3 12.1,44.1 
	6,44.1 6,35.8 "/>
<rect x="22.6" y="35.8" fill="#C9A058" width="1" height="8.4"/>
<path fill="#C9A058" d="M27.8,42.9l0.6-0.7c0.9,0.8,1.7,1.2,2.9,1.2c1.1,0,1.9-0.6,1.9-1.4V42c0-0.8-0.4-1.2-2.2-1.6
	c-1.9-0.4-2.8-1-2.8-2.4v-0.1c0-1.3,1.2-2.3,2.8-2.3c1.2,0,2.1,0.3,2.9,1l-0.6,0.8c-0.8-0.6-1.6-0.9-2.4-0.9c-1.1,0-1.8,0.6-1.8,1.3
	l0,0c0,0.8,0.5,1.2,2.3,1.6c1.9,0.4,2.7,1.1,2.7,2.4l0,0c0,1.4-1.2,2.4-2.9,2.4C30,44.3,28.8,43.9,27.8,42.9"/>
<polyline fill="#C9A058" points="38.5,35.8 39.5,35.8 39.5,43.3 44.1,43.3 44.1,44.1 38.5,44.1 38.5,35.8 "/>
<path fill="#C9A058" d="M50.3,35.6h0.9l3.8,8.5h-1l-1-2.2h-4.6l-1,2.2h-1L50.3,35.6 M52.6,41.1l-1.9-4.3l-2,4.3H52.6z"/>
<polyline fill="#C9A058" points="59.1,35.8 59.9,35.8 65.3,42.5 65.3,35.8 66.2,35.8 66.2,44.1 65.4,44.1 60,37.3 60,44.1 
	59.1,44.1 59.1,35.8 "/>
<path fill="#C9A058" d="M71,35.8h2.9c2.7,0,4.5,1.9,4.5,4.2l0,0c0,2.4-1.9,4.2-4.5,4.2H71V35.8 M73.9,43.3c2.1,0,3.5-1.4,3.5-3.3
	l0,0c0-1.9-1.3-3.4-3.5-3.4h-2v6.6H73.9z"/>
<polyline fill="#C9A058" points="-28,52.9 -27.1,52.9 -24,57.4 -20.9,52.9 -20,52.9 -20,61.3 -20.9,61.3 -20.9,54.4 -24,59 -24,59 
	-27.1,54.4 -27.1,61.3 -28,61.3 -28,52.9 "/>
<path fill="#C9A058" d="M-12.1,52.8h0.9l3.8,8.5h-1l-1-2.2H-14l-1,2.2h-0.9L-12.1,52.8 M-9.7,58.2l-1.9-4.3l-1.9,4.3H-9.7z"/>
<polyline fill="#C9A058" points="-3.3,52.9 -2.3,52.9 -2.3,60.4 2.4,60.4 2.4,61.3 -3.3,61.3 -3.3,52.9 "/>
<path fill="#C9A058" d="M6.6,52.9h2.9c2.6,0,4.5,1.8,4.5,4.2l0,0c0,2.4-1.9,4.2-4.5,4.2H6.6V52.9 M9.5,60.4c2.1,0,3.5-1.4,3.5-3.3
	l0,0c0-1.9-1.3-3.4-3.5-3.4h-2v6.6H9.5z"/>
<rect x="18.5" y="52.9" fill="#C9A058" width="0.9" height="8.4"/>
<polyline fill="#C9A058" points="23.6,52.9 24.7,52.9 27.6,60.1 30.6,52.9 31.7,52.9 28,61.3 27.2,61.3 23.6,52.9 "/>
<polyline fill="#C9A058" points="35.8,52.9 41.8,52.9 41.8,53.7 36.7,53.7 36.7,56.6 41.3,56.6 41.3,57.4 36.7,57.4 36.7,60.4 
	41.9,60.4 41.9,61.3 35.8,61.3 35.8,52.9 "/>
<path fill="#C9A058" d="M45.7,60.1l0.6-0.7c0.9,0.8,1.7,1.2,2.9,1.2c1.1,0,1.9-0.6,1.9-1.4l0,0c0-0.8-0.5-1.2-2.2-1.6
	c-2-0.4-2.8-1-2.8-2.4l0,0c0-1.3,1.2-2.3,2.8-2.3c1.2,0,2.1,0.3,2.9,1l-0.5,0.8c-0.8-0.6-1.6-0.9-2.4-0.9c-1.1,0-1.8,0.6-1.8,1.4
	l0,0c0,0.8,0.4,1.2,2.3,1.6s2.7,1.1,2.7,2.4v0.1c0,1.4-1.2,2.4-2.9,2.4C47.7,61.4,46.6,60.9,45.7,60.1"/>
<polyline fill="#C9A058" points="0.1,-23.5 2.7,-20.7 5.9,-22.2 5.9,-28 2.7,-29.5 0.1,-26.7 0.1,-23.5 "/>
<polyline fill="#C9A058" points="16.9,-28 11.9,-30.9 6.9,-28 6.9,-22.2 11.9,-19.3 16.9,-22.2 16.9,-28 "/>
<path fill="#C9A058" d="M3-30.4l3.4,1.6l5-2.9v-6c-3.7,0.1-7.2,1.1-10.1,2.8L3-30.4"/>
<path fill="#C9A058" d="M12.3-37.7v6l5,2.9l3.4-1.6l1.9-4.5C19.7-36.6,16.2-37.6,12.3-37.7"/>
<path fill="#C9A058" d="M28.9-25.1c0-1.2-0.2-2.4-0.7-3.6l-3.6,2.1v3l3.5,2.1C28.6-22.6,28.9-23.9,28.9-25.1"/>
<path fill="#C9A058" d="M11.4-12.5v-6l-5-2.9L3-19.8l-1.7,4.4C4.1-13.6,7.7-12.6,11.4-12.5"/>
<path fill="#C9A058" d="M21.7-30.2l2.6,2.6l3.5-2c-0.8-1.7-2.1-3.2-3.9-4.5c-0.2-0.1-0.3-0.2-0.5-0.3L21.7-30.2"/>
<path fill="#C9A058" d="M20.7-19.8l-3.4-1.6l-5,2.9v6c3.8-0.1,7.3-1,10.2-2.7L20.7-19.8"/>
<path fill="#C9A058" d="M-0.8-26.6l-3.4-1.9c-0.5,1.1-0.7,2.3-0.7,3.5c0,1.2,0.2,2.3,0.6,3.4l3.4-1.9L-0.8-26.6"/>
<path fill="#C9A058" d="M24.3-22.7L21.7-20l1.7,4.2c0.2-0.1,0.3-0.2,0.5-0.3c1.7-1.3,3-2.8,3.9-4.4L24.3-22.7"/>
<path fill="#C9A058" d="M0.5-15.9L2.1-20l-2.6-2.7l-3.4,2c0.8,1.7,2.1,3.3,4,4.6C0.3-16.1,0.4-16,0.5-15.9"/>
<polyline fill="#C9A058" points="23.7,-26.7 21,-29.5 17.8,-28 17.8,-22.2 21,-20.7 23.7,-23.5 23.7,-26.7 "/>
<path fill="#C9A058" d="M-0.5-27.6l2.6-2.7l-1.6-4.2c-0.1,0.1-0.2,0.2-0.3,0.2c-1.8,1.3-3.1,2.9-3.9,4.6L-0.5-27.6"/>
</svg>
