<?xml version="1.0" standalone="no"?>
<!DOCTYPE svg PUBLIC "-//W3C//DTD SVG 20010904//EN"
 "http://www.w3.org/TR/2001/REC-SVG-20010904/DTD/svg10.dtd">
<svg version="1.0" xmlns="http://www.w3.org/2000/svg"
 width="324.000000pt" height="324.000000pt" viewBox="0 0 324.000000 324.000000"
 preserveAspectRatio="xMidYMid meet">
<metadata>
Created by potrace 1.11, written by Peter Selinger 2001-2013
</metadata>
<g transform="translate(0.000000,324.000000) scale(0.100000,-0.100000)"
fill="#000000" stroke="none">
<path d="M544 2539 c-171 -30 -263 -70 -347 -152 -180 -174 -157 -474 47 -605
76 -49 203 -100 281 -114 11 -2 -26 -13 -83 -25 -196 -41 -339 -138 -404 -272
-31 -62 -32 -72 -33 -181 0 -87 5 -128 19 -170 26 -77 79 -152 139 -201 57
-45 172 -102 227 -113 19 -3 46 -8 60 -11 73 -15 186 -19 480 -20 l325 0 1
843 c2 921 6 859 -56 827 -68 -35 -158 -218 -175 -357 -4 -29 -8 -55 -10 -58
-3 -6 -17 -156 -19 -210 l-1 -35 -110 1 c-277 3 -369 26 -448 113 -59 65 -75
114 -84 252 -13 205 45 337 178 404 45 23 61 28 141 41 25 4 38 12 42 27 3 12
3 23 0 26 -10 11 -73 7 -170 -10z m452 -1344 c1 -242 0 -447 -2 -456 -6 -23
-322 -19 -413 5 -71 19 -143 62 -180 108 -31 39 -70 136 -79 196 -18 130 -1
313 36 387 74 150 204 201 512 200 l125 -1 1 -439z"/>
<path d="M859 2558 c-2 -5 -6 -74 -13 -278 -4 -107 -9 -221 -10 -253 -3 -53
-1 -58 17 -55 16 2 24 18 38 78 50 210 146 372 253 425 46 23 143 36 246 33
l95 -3 0 -915 0 -915 130 0 130 0 2 795 c1 437 2 850 3 918 l0 123 106 -2
c120 -2 184 -16 248 -53 92 -54 165 -176 228 -378 26 -85 37 -108 51 -108 19
0 19 31 2 283 -5 68 -18 279 -18 295 0 9 -158 12 -754 12 -414 0 -754 -1 -754
-2z"/>
<path d="M2510 2530 c0 -29 10 -34 63 -30 11 1 119 -36 147 -50 111 -57 164
-165 169 -342 6 -222 -72 -353 -236 -397 -23 -6 -60 -14 -83 -17 -52 -7 -320
-11 -321 -4 -1 3 -3 21 -4 41 -23 317 -122 578 -236 618 l-27 9 1 -841 2 -842
325 1 c295 1 422 5 489 19 119 23 228 76 299 144 96 92 133 178 138 321 6 156
-28 244 -131 339 -84 76 -234 140 -368 157 -45 5 -42 10 18 23 182 41 338 153
385 277 27 72 32 171 13 244 -53 205 -254 330 -570 354 l-73 6 0 -30z m66
-904 c121 -14 221 -65 274 -137 52 -72 74 -165 74 -309 -1 -174 -32 -275 -108
-351 -80 -80 -181 -105 -419 -104 l-152 1 -1 439 c-1 242 0 447 2 455 3 13 25
16 142 14 77 -1 161 -4 188 -8z"/>
</g>
</svg>
