<svg xmlns="http://www.w3.org/2000/svg" width="133.1" height="99.4" viewBox="0 0 133.1 99.4"><title>vella</title><g id="Layer_2" data-name="Layer 2"><g id="Layer_1-2" data-name="Layer 1"><path d="M125.8,51.2H114.3L120,38.4l5.8,12.8m7.3,11.6-12-27H119l.4.9L107.7,62.8h2.2l-.2-.9,4.1-9.3h12.7L131,62.7h2.1Zm-38-11.6H83.7l5.7-12.8Zm7.3,11.6-12-27H88.2l.4.9L77,62.8h2.2l-.2-.9,4.2-9.3H95.7l4.5,10.1h2.2ZM73.5,61.4H61.9V35.8H59.3l.5.9V62.8H72.9Zm-25.1,0h-13v-12H47.6l.5-1.4H35.4V37.1H47.8l.5-1.4H32.7l.5.9V62.7H47.7ZM24.3,35.8H22.2l.2.9L12.6,60.1,2.3,35.8H0l11.3,27h1.5Z"/><path d="M.2,73.5H3.4c1.9,0,3.1,1,3.1,2.7v.1C6.5,78.1,5,79,3.2,79h-2v2.9H.2V73.5m3,4.5c1.4,0,2.3-.8,2.3-1.9h0c0-1.2-.9-1.9-2.3-1.9H1.1v3.7H3.2Z"/><path d="M11.2,73.5h3.6a3.09,3.09,0,0,1,2.4.9,2.27,2.27,0,0,1,.6,1.6h0a2.41,2.41,0,0,1-2.3,2.4l2.6,3.5H16.9l-2.4-3.2H12.1v3.2h-.9V73.5m3.6,4.2c1.3,0,2.1-.7,2.1-1.7v-.1c0-1-.8-1.6-2.1-1.6H12.2v3.4Z"/><rect x="23" y="73.5" width="0.9" height="8.4"/><polyline points="28.1 73.5 29.2 73.5 32.2 80.7 35.2 73.5 36.2 73.5 32.6 82 31.7 82 28.1 73.5"/><path d="M42.8,73.3h.9l3.8,8.5h-1l-1-2.2H40.9l-1,2.2h-1l3.9-8.5m2.3,5.5-1.9-4.3-1.9,4.3Z"/><polyline points="52.8 74.3 49.9 74.3 49.9 73.5 56.5 73.5 56.5 74.3 53.7 74.3 53.7 81.8 52.8 81.8 52.8 74.3"/><polyline points="60.7 73.5 66.8 73.5 66.8 74.3 61.7 74.3 61.7 77.2 66.2 77.2 66.2 78 61.7 78 61.7 81 66.8 81 66.8 81.8 60.7 81.8 60.7 73.5"/><rect x="77.3" y="73.5" width="1" height="8.4"/><path d="M82.5,80.6l.6-.7A4,4,0,0,0,86,81.1c1.1,0,1.9-.6,1.9-1.4h0c0-.8-.4-1.2-2.2-1.6s-2.8-1-2.8-2.4v-.1a2.53,2.53,0,0,1,2.8-2.3,4.1,4.1,0,0,1,2.9,1l-.6.8a4,4,0,0,0-2.4-.9c-1.1,0-1.8.6-1.8,1.3h0c0,.8.5,1.2,2.3,1.6s2.7,1.1,2.7,2.4h0c0,1.4-1.2,2.4-2.9,2.4a4.22,4.22,0,0,1-3.4-1.3"/><polyline points="93.2 73.5 94.2 73.5 94.2 81 98.8 81 98.8 81.8 93.2 81.8 93.2 73.5"/><path d="M105,73.3h.9l3.8,8.5h-1l-1-2.2h-4.6l-1,2.2h-1l3.9-8.5m2.3,5.5-1.9-4.3-2,4.3Z"/><polyline points="113.8 73.5 114.6 73.5 120 80.2 120 73.5 120.9 73.5 120.9 81.8 120.1 81.8 114.7 75 114.7 81.8 113.8 81.8 113.8 73.5"/><path d="M125.7,73.5h2.9a4.24,4.24,0,0,1,4.5,4.2h0a4.24,4.24,0,0,1-4.5,4.2h-2.9V73.5m2.9,7.5a3.26,3.26,0,0,0,3.5-3.3h0a3.28,3.28,0,0,0-3.5-3.4h-2v6.6h2Z"/><polyline points="26.7 90.6 27.6 90.6 30.7 95.1 33.8 90.6 34.7 90.6 34.7 99 33.8 99 33.8 92.1 30.7 96.7 30.7 96.7 27.6 92.1 27.6 99 26.7 99 26.7 90.6"/><path d="M42.6,90.5h.9L47.3,99h-1l-1-2.2H40.7l-1,2.2h-.9l3.8-8.5M45,95.9l-1.9-4.3-1.9,4.3Z"/><polyline points="51.4 90.6 52.4 90.6 52.4 98.1 57.1 98.1 57.1 99 51.4 99 51.4 90.6"/><path d="M61.3,90.6h2.9a4.24,4.24,0,0,1,4.5,4.2h0A4.24,4.24,0,0,1,64.2,99H61.3V90.6m2.9,7.5a3.26,3.26,0,0,0,3.5-3.3h0a3.28,3.28,0,0,0-3.5-3.4h-2V98h2Z"/><rect x="73.2" y="90.6" width="0.9" height="8.4"/><polyline points="78.3 90.6 79.4 90.6 82.3 97.8 85.3 90.6 86.4 90.6 82.7 99 81.9 99 78.3 90.6"/><polyline points="90.5 90.6 96.5 90.6 96.5 91.4 91.4 91.4 91.4 94.3 96 94.3 96 95.1 91.4 95.1 91.4 98.1 96.6 98.1 96.6 99 90.5 99 90.5 90.6"/><path d="M100.4,97.8l.6-.7a4,4,0,0,0,2.9,1.2c1.1,0,1.9-.6,1.9-1.4h0c0-.8-.5-1.2-2.2-1.6-2-.4-2.8-1-2.8-2.4h0a2.53,2.53,0,0,1,2.8-2.3,4.1,4.1,0,0,1,2.9,1l-.5.8a4,4,0,0,0-2.4-.9c-1.1,0-1.8.6-1.8,1.4h0c0,.8.4,1.2,2.3,1.6s2.7,1.1,2.7,2.4V97c0,1.4-1.2,2.4-2.9,2.4a7.11,7.11,0,0,1-3.5-1.6"/><polyline points="54.8 14.2 57.4 17 60.6 15.5 60.6 9.7 57.4 8.2 54.8 11 54.8 14.2"/><polyline points="71.6 9.7 66.6 6.8 61.6 9.7 61.6 15.5 66.6 18.4 71.6 15.5 71.6 9.7"/><path d="M57.7,7.3l3.4,1.6,5-2.9V0A21.17,21.17,0,0,0,56,2.8l1.7,4.5"/><path d="M67,0V6l5,2.9,3.4-1.6,1.9-4.5A21.33,21.33,0,0,0,67,0"/><path d="M83.6,12.6A9.22,9.22,0,0,0,82.9,9l-3.6,2.1v3l3.5,2.1a9,9,0,0,0,.8-3.6"/><path d="M66.1,25.2v-6l-5-2.9-3.4,1.6L56,22.3a19.89,19.89,0,0,0,10.1,2.9"/><path d="M76.4,7.5,79,10.1l3.5-2a11.78,11.78,0,0,0-3.9-4.5c-.2-.1-.3-.2-.5-.3L76.4,7.5"/><path d="M75.4,17.9,72,16.3l-5,2.9v6a21.19,21.19,0,0,0,10.2-2.7l-1.8-4.6"/><path d="M53.9,11.1,50.5,9.2a8.42,8.42,0,0,0-.7,3.5,9.74,9.74,0,0,0,.6,3.4l3.4-1.9.1-3.1"/><path d="M79,15l-2.6,2.7,1.7,4.2c.2-.1.3-.2.5-.3a14.57,14.57,0,0,0,3.9-4.4L79,15"/><path d="M55.2,21.8l1.6-4.1L54.2,15l-3.4,2a11.51,11.51,0,0,0,4,4.6.52.52,0,0,1,.4.2"/><polyline points="78.4 11 75.7 8.2 72.5 9.7 72.5 15.5 75.7 17 78.4 14.2 78.4 11"/><path d="M54.2,10.1l2.6-2.7L55.2,3.2c-.1.1-.2.2-.3.2A12,12,0,0,0,51,8l3.2,2.1"/></g></g></svg>