<svg width="230" height="42" viewBox="0 0 230 42" version="1.1" xmlns="http://www.w3.org/2000/svg" xmlns:xlink="http://www.w3.org/1999/xlink">
<g id="Canvas" fill="none">
<g id="arrow" clip-path="url(#clip0)">
<g id="Vector">
<path d="M 221.989 7.34375L 225.784 10.5988L 228.576 7.34375L 225.784 4.08874L 221.989 7.34375ZM 215.691 0L 219.486 -3.25501L 210.691 -13.5105L 210.691 0L 215.691 0ZM 215.691 14.6875L 210.691 14.6875L 210.691 28.198L 219.486 17.9425L 215.691 14.6875ZM 0 12.3438L 221.989 12.3438L 221.989 2.34375L 0 2.34375L 0 12.3438ZM 225.784 4.08874L 219.486 -3.25501L 211.895 3.25501L 218.194 10.5988L 225.784 4.08874ZM 210.691 0L 210.691 14.6875L 220.691 14.6875L 220.691 0L 210.691 0ZM 219.486 17.9425L 225.784 10.5988L 218.194 4.08874L 211.895 11.4325L 219.486 17.9425Z" transform="translate(0 13)" fill="#151515"/>
</g>
</g>
</g>
<defs>

<clipPath id="clip0">
<rect width="230" height="42" fill="white"/>
</clipPath>

</defs>
</svg>

