<svg width="44" height="97" viewBox="0 0 44 97" version="1.1" xmlns="http://www.w3.org/2000/svg" xmlns:xlink="http://www.w3.org/1999/xlink">
<g id="Canvas" fill="none">
<g id="brand" clip-path="url(#clip0)">
<g id="Group 2.1">
<path id="B" d="M 17.3981 30.447L 17.3981 38.655L 20.4973 38.655C 22.3522 38.655 23.7727 38.3042 24.7588 37.6027C 25.7684 36.8778 26.2732 35.8605 26.2732 34.551C 26.2732 33.2181 25.7684 32.2008 24.7588 31.4993C 23.7727 30.7977 22.3522 30.447 20.4973 30.447L 17.3981 30.447ZM 17.3981 12.2068L 17.3981 19.3977L 19.8282 19.3977C 21.3308 19.3977 22.4696 19.0937 23.2444 18.4857C 24.0427 17.8543 24.4418 16.954 24.4418 15.7847C 24.4418 14.6155 24.0427 13.7269 23.2444 13.1189C 22.4696 12.5108 21.3308 12.2068 19.8282 12.2068L 17.3981 12.2068ZM 0 51.3529L 0 0L 24.6884 0C 29.9712 0 34.0918 1.23939 37.0502 3.71818C 40.0085 6.17358 41.4877 9.59945 41.4877 13.9958C 41.4877 16.802 40.7834 19.1404 39.3746 21.0112C 37.9893 22.8586 36.0171 24.0629 33.4578 24.6242C 36.9562 25.3491 39.5624 26.7171 41.2764 28.7282C 42.9904 30.7393 43.8474 33.4402 43.8474 36.831C 43.8474 41.6249 42.2156 45.2495 38.952 47.7049C 35.7118 50.1369 30.9338 51.3529 24.6179 51.3529L 0 51.3529Z" transform="translate(43.8477 0) scale(-1 1)" fill="#FEDDC9"/>
<rect id="Rectangle 2" width="8.26467" height="38.9122" transform="translate(35.7344 58.0879)" fill="#FEDDC9"/>
</g>
</g>
</g>
<defs>
<clipPath id="clip0">
<rect width="44" height="97" fill="white"/>
</clipPath>
</defs>
</svg>
