<svg width="487" height="42" viewBox="0 0 487 42" version="1.1" xmlns="http://www.w3.org/2000/svg" xmlns:xlink="http://www.w3.org/1999/xlink">
<g id="Canvas" fill="none">
<g id="logo final" clip-path="url(#clip0)">
<g id="Group">
<g id="Vector">
<path d="M 3.22 38.96L 0 38.96L 0 40.04L 14.08 40.04C 19.96 40.04 23.26 39.32 25.96 37.4C 28.6 35.54 29.98 32.78 29.98 29.24C 29.98 26.06 28.96 23.9 26.56 22.04C 24.46 20.42 22.48 19.7 18.28 19.04C 25 17.66 28.42 14.48 28.42 9.8C 28.42 6.62 26.8 3.92 23.8 2.18C 21.4 0.740003 17.74 0.0200014 12.64 0.0200014L 0 0.0200014L 0 1.1L 3.22 1.1L 3.22 38.96ZM 8.8 18.56L 8.8 1.1L 12.1 1.1C 19.66 1.1 22.54 3.56 22.54 9.98C 22.54 16.16 19.84 18.56 12.94 18.56L 8.8 18.56ZM 8.8 38.96L 8.8 19.64L 12.76 19.64C 20.44 19.64 23.32 22.28 23.32 29.3C 23.32 36.02 20.5 38.96 14.08 38.96L 8.8 38.96Z" transform="translate(0 1)" fill="#303030"/>
<path d="M 56.2341 0.0200014L 29.5 0.0200014L 29.5 1.1L 33.1341 1.1L 33.1341 38.96L 29.5 38.96L 29.5 40.04L 57.5541 40.04L 57.5541 32L 56.7741 32C 55 40.04 52.9417 38.96 46.7541 38.96L 38.7141 38.96L 38.7141 20.3L 41.3541 20.3C 45.9741 20.3 47.9541 22.22 47.9541 26.72L 47.9541 28.16L 48.7341 28.16L 48.7341 11.78L 47.9541 11.78L 47.9541 12.92C 47.9541 17.48 46.1541 19.22 41.5341 19.22L 38.7141 19.22L 38.7141 1.1L 43.8141 1.1C 52.1541 1.1 53.5941 -0.039999 55.4541 8L 56.2341 8L 56.2341 0.0200014Z" transform="translate(0 1)" fill="#303030"/>
<path d="M 84.2503 20.24L 84.2503 38.96L 78.6703 38.96L 78.6703 40.04L 95.0503 40.04L 95.0503 38.96L 89.8303 38.96L 89.8303 1.1L 95.0503 1.1L 95.0503 0.0200014L 78.6703 0.0200014L 78.6703 1.1L 84.2503 1.1L 84.2503 19.16L 67.2703 19.16L 67.2703 1.1L 72.8503 1.1L 72.8503 0.0200014L 58.5 0.0200014L 58.5 1.1L 61.6903 1.1L 61.6903 38.96L 59.5 38.96L 59.5 40.04L 72.8503 40.04L 72.8503 38.96L 67.2703 38.96L 67.2703 20.24L 84.2503 20.24Z" transform="translate(0 1)" fill="#303030"/>
<path d="M 95.488 38.96L 90.268 38.96L 90.268 40.04L 106.288 40.04L 106.288 38.96L 101.068 38.96L 101.068 1.1L 106.288 1.1L 106.288 0.0200014L 90.268 0.0200014L 90.268 1.1L 95.488 1.1L 95.488 38.96Z" transform="translate(0 1)" fill="#303030"/>
<path d="M 131.428 40.04L 132.388 40.04L 132.388 1.1L 136.768 1.1L 136.768 0.0200014L 125.788 0.0200014L 125.788 1.1L 131.008 1.1L 131.008 28.94L 114.108 0.0200014L 101.448 0.0200014L 101.448 1.1L 106.668 1.1L 106.668 38.96L 101.448 38.96L 101.448 40.04L 113.628 40.04L 113.628 38.96L 108.048 38.96L 108.048 1.4L 131.428 40.04Z" transform="translate(0 1)" fill="#303030"/>
<path d="M 137.991 38.96L 134 38.96L 134 40.04L 146.711 40.04C 154.571 40.04 158.171 38.72 162.071 34.58C 165.491 30.86 167.411 25.64 167.411 20C 167.411 14.36 165.551 9.2 162.251 5.6C 158.531 1.58 154.271 0.0200014 146.651 0.0200014L 132.771 0.0200014L 132.771 1.1L 137.991 1.1L 137.991 38.96ZM 143.571 38.96L 143.571 1.1L 146.651 1.1C 151.871 1.1 154.811 1.88 157.091 3.86C 159.731 6.08 160.631 10.1 160.631 19.16C 160.631 27.86 159.971 32.42 158.411 34.7C 156.371 37.76 153.011 38.96 146.711 38.96L 143.571 38.96Z" transform="translate(0 1)" fill="#303030"/>
<path d="M 204.582 1.1L 207.582 1.1C 210.702 1.1 215.5 1.1 215.5 1.1L 216.722 0.0200014L 185.622 0.0200014L 185.142 12.5L 185.922 12.62C 186.762 8.78 187.482 6.8 188.742 4.82C 190.602 1.88 192.102 1.1 196.122 1.1L 199.002 1.1L 199.002 38.96L 193.002 38.96L 193.002 40.04L 208.02 40.04L 208.02 38.96L 204.582 38.96L 204.582 1.1Z" transform="translate(0 1)" fill="#303030"/>
<path d="M 238.103 20.24L 238.103 38.96L 232.523 38.96L 232.523 40.04L 248.903 40.04L 248.903 38.96L 243.683 38.96L 243.683 1.1L 248.903 1.1L 248.903 0.0200014L 232.523 0.0200014L 232.523 1.1L 238.103 1.1L 238.103 19.16L 221.123 19.16L 221.123 1.1L 226.703 1.1L 226.703 0.0200014L 210.323 0.0200014L 210.323 1.1L 215.5 1.1L 215.543 38.96L 212.02 38.96L 212.02 40.04L 226.703 40.04L 226.703 38.96L 221.123 38.96L 221.123 20.24L 238.103 20.24Z" transform="translate(0 1)" fill="#303030"/>
<path d="M 272.734 0L 246 0L 246 1.08L 249.634 1.08L 249.634 38.94L 246 38.94L 246 40.02L 274.054 40.02L 274.054 31.98L 273.274 31.98C 271.5 40.02 269.442 38.94 263.254 38.94L 255.214 38.94L 255.214 20.28L 257.854 20.28C 262.474 20.28 264.454 22.2 264.454 26.7L 264.454 28.14L 265.234 28.14L 265.234 11.76L 264.454 11.76L 264.454 12.9C 264.454 17.46 262.654 19.2 258.034 19.2L 255.214 19.2L 255.214 1.08L 260.314 1.08C 268.654 1.08 270.094 -0.0600014 271.954 7.98L 272.734 7.98L 272.734 0Z" transform="translate(0 1)" fill="#303030"/>
</g>
<g id="Vector_2">
<path d="M 3.49655 38.524L 0 38.524L 0 40.024L 16.3965 40.024C 19.6965 40.024 22.2165 39.904 23.4165 39.784C 25.8165 39.424 28.1566 38.584 29.6566 37.444C 32.2366 35.584 33.6765 32.704 33.6765 29.464C 33.6765 25.744 31.7566 22.684 28.0966 20.764C 26.1766 19.744 24.6166 19.384 21.4966 19.144C 23.7766 18.904 25.0966 18.544 26.7166 17.644C 29.8366 15.964 31.8166 12.904 31.8166 9.66404C 31.8166 5.34404 28.9365 1.98404 24.0165 0.604038C 22.1565 0.064038 21.0765 0.00403882 15.5565 0.00403882L 0 0.00403882L 0 1.50404L 3.49655 1.50404L 3.49655 38.524ZM 11.8965 18.544L 11.8965 1.50404L 15.5565 1.50404C 18.9765 1.50404 20.2966 1.80404 21.4366 2.94404C 22.6966 4.14404 23.2365 6.36404 23.2365 9.90404C 23.2365 16.384 21.3765 18.544 15.7365 18.544L 11.8965 18.544ZM 11.8965 38.524L 11.8965 20.044L 15.7365 20.044C 19.6965 20.044 20.5965 20.224 21.9165 21.364C 23.5965 22.744 24.3766 25.204 24.3766 29.164C 24.3766 32.884 23.7166 35.344 22.2166 36.964C 21.0166 38.284 20.1165 38.524 16.3965 38.524L 11.8965 38.524Z" transform="translate(292 1.01599)" fill="#202020"/>
<path d="M 36.2958 38.524L 33 38.524L 33 40.024L 49.4958 40.024L 49.4958 38.524L 44.6958 38.524L 44.6958 19.444L 47.9958 19.444C 50.6358 19.444 51.5358 19.684 52.5558 20.704C 53.8758 21.904 54.5358 24.184 54.7758 28.504C 55.0158 32.884 55.2558 34.204 56.1558 36.124C 57.4758 38.884 59.8415 40.024 63.3215 40.024C 65.3615 40.024 67.4958 39.844 69.8958 38.944L 68.8759 37.0241C 68.3615 38.1139 67.7958 38.044 67.0158 38.044C 64.9758 38.044 64.0758 36.664 64.0758 33.544C 64.0758 33.184 64.0758 32.704 64.1358 31.984L 64.1358 30.724C 64.1358 24.484 59.8758 19.864 53.0958 18.724C 57.3558 18.484 58.3758 18.304 60.2358 17.284C 63.2358 15.604 64.9758 12.724 64.9758 9.30404C 64.9758 6.42404 63.7758 3.96404 61.6158 2.34404C 59.0958 0.484039 56.5158 0.00403882 49.1358 0.00403882L 33 0.00403882L 33 1.50404L 36.2958 1.50404L 36.2958 38.524ZM 44.6958 17.944L 44.6958 1.50404L 49.1358 1.50404C 52.3758 1.50404 53.6958 1.80404 54.7758 2.82404C 55.9158 3.96404 56.4558 5.94404 56.4558 9.12404C 56.4558 16.084 54.9558 17.944 49.1358 17.944L 44.6958 17.944Z" transform="translate(292 1.01599)" fill="#202020"/>
<path d="M 84.9415 29.284L 88.1815 38.524L 83.0215 38.524L 83.0215 40.024L 100.962 40.024L 100.962 38.524L 96.7015 38.524L 83.0215 0.00403882L 81.1615 0.00403882L 68.5616 35.104C 67.8416 37.264 67.7815 37.324 67.3615 37.804C 66.7615 38.404 66.2215 38.524 64.4215 38.524L 62.3215 38.524L 63.3215 40.024L 74.7415 40.024L 74.7415 38.524L 71.5616 38.524C 70.0016 38.524 69.5215 38.344 69.5215 37.624C 69.5215 37.384 69.6415 37.024 70.0015 36.004L 72.4016 29.284L 84.9415 29.284ZM 84.3416 27.784L 72.9415 27.784L 78.6415 11.884L 84.3416 27.784Z" transform="translate(292 1.01599)" fill="#202020"/>
<path d="M 125.02 40.024L 126.4 40.024L 126.279 5.82404C 126.279 1.86404 126.519 1.50404 129.519 1.50404L 131.079 1.50404L 131.079 0.00403882L 119.679 0.00403882L 119.679 1.50404L 121.239 1.50404C 124.239 1.50404 124.479 1.80404 124.479 5.82404L 124.479 25.564L 107.279 0.00403882L 94.3188 0.00403882L 94.3188 1.50404L 95.8788 1.50404C 98.8788 1.50404 99.1187 1.80404 99.1187 5.82404L 99.1187 34.204C 99.1187 38.224 98.8788 38.524 95.8788 38.524L 94.3188 38.524L 94.3188 40.024L 106.499 40.024L 106.499 38.524L 104.159 38.524C 101.159 38.524 100.919 38.164 100.919 34.204L 100.919 4.92404L 125.02 40.024Z" transform="translate(292 1.01599)" fill="#202020"/>
<path d="M 132.682 38.524L 129.5 38.524L 129.5 40.024L 145.602 40.024C 149.082 40.024 150.762 39.964 151.782 39.844C 154.182 39.484 156.522 38.464 158.502 36.904C 163.002 33.244 165.522 27.244 165.522 20.104C 165.522 10.924 161.142 3.30404 154.482 0.904038C 152.382 0.18404 150.882 0.00403882 145.602 0.00403882L 127.882 0.00403882L 127.882 1.50404L 132.682 1.50404L 132.682 38.524ZM 141.082 38.524L 141.082 1.50404L 145.602 1.50404C 149.802 1.50404 151.662 2.34404 153.162 4.80404C 154.962 7.80404 155.502 11.464 155.502 19.984C 155.502 28.564 154.962 32.224 153.162 35.224C 151.662 37.684 149.802 38.524 145.602 38.524L 141.082 38.524Z" transform="translate(292 1.01599)" fill="#202020"/>
<path d="M 190.697 0.00403882L 189.077 0.00403882L 187.397 1.86404C 184.637 -0.175963 181.88 0.0040508 179 0.0040508C 172.1 0.0040508 167.117 4.44404 167.117 11.524C 167.117 14.464 168.077 17.164 169.817 19.024C 171.257 20.644 172.457 21.304 175.877 22.384C 179.297 23.524 179.297 23.524 180.677 23.944C 184.157 25.024 184.277 25.084 185.537 25.684C 187.697 26.824 189.017 29.104 189.017 31.744C 189.017 36.004 185.357 38.484 180.677 38.484C 174.977 38.484 171.5 35.984 169.12 30.484L 167.5 30.484L 167.297 40.024L 168.857 40.024L 170.5 36.904C 174.04 39.364 177.557 40.104 181.037 40.104C 188.597 40.104 194.117 35.284 194.117 27.604C 194.117 24.124 192.917 20.944 190.817 18.724C 189.197 16.984 187.517 16.264 181.397 14.464C 176.057 12.904 176.057 12.904 174.617 12.124C 172.877 11.164 171.857 9.36404 171.857 7.26404C 171.857 3.48404 174.74 1.62405 179 1.62405C 184.28 1.62405 188.237 4.38404 189.077 10.804L 190.697 10.804L 190.697 0.00403882Z" transform="translate(292 1.01599)" fill="#202020"/>
</g>
</g>
</g>
</g>
<defs>

<clipPath id="clip0">
<rect width="487" height="42" fill="white"/>
</clipPath>

</defs>
</svg>

