<svg width="47" height="81" viewBox="0 0 47 81" version="1.1" xmlns="http://www.w3.org/2000/svg" xmlns:xlink="http://www.w3.org/1999/xlink">
<g id="Canvas" fill="none">
<g id="question_mark" clip-path="url(#clip0)">
<path id="?" d="M 14.0111 71.0417C 14.0111 68.5764 14.8825 66.4931 16.6251 64.7917C 18.4027 63.0556 20.5287 62.1875 23.0033 62.1875C 25.5128 62.1875 27.6389 63.0556 29.3815 64.7917C 31.1242 66.4931 31.9956 68.5764 31.9956 71.0417C 31.9956 73.5069 31.1242 75.625 29.3815 77.3958C 27.6389 79.1319 25.5128 80 23.0033 80C 20.5287 80 18.4027 79.1146 16.6251 77.3438C 14.8825 75.5729 14.0111 73.4722 14.0111 71.0417ZM 30.218 55.6771L 15.8409 55.6771L 15.8409 33.3854L 20.4416 33.3854C 23.9967 33.3854 26.7501 32.3785 28.7019 30.3646C 30.6885 28.316 31.6819 25.4861 31.6819 21.875C 31.6819 18.5764 30.9499 16.0417 29.4861 14.2708C 28.0571 12.5 25.9659 11.6146 23.2125 11.6146C 20.459 11.6146 18.3504 12.4479 16.8865 14.1146C 15.4227 15.7812 14.6908 18.2292 14.6908 21.4583C 14.6908 21.6319 14.7082 21.8924 14.743 22.2396C 14.7779 22.5868 14.7953 22.8472 14.7953 23.0208L 0 23.0208L 0 21.3542C 0 14.8958 2.19577 9.72222 6.58732 5.83333C 11.0137 1.94444 16.8517 0 24.1012 0C 31.1765 0 36.7531 1.99653 40.8309 5.98958C 44.9436 9.98264 47 15.4514 47 22.3958C 47 27.7431 45.571 32.1007 42.713 35.4688C 39.855 38.8368 35.69 41.0937 30.218 42.2396L 30.218 55.6771Z" fill="#E4E7EB"/>
</g>
</g>
<defs>
<clipPath id="clip0">
<rect width="47" height="81" fill="white"/>
</clipPath>
</defs>
</svg>
